<svg version="1.1" id="Layer_1" xmlns="http://www.w3.org/2000/svg" xmlns:xlink="http://www.w3.org/1999/xlink" x="0px" y="0px"
	 width="100%" viewBox="0 0 1024 1024" enable-background="new 0 0 1024 1024" xml:space="preserve">
<path fill="#000000" opacity="1.000000" stroke="none" 
	d="
M499.000000,1025.000000 
	C332.666656,1025.000000 166.833328,1025.000000 1.000000,1025.000000 
	C1.000000,683.666687 1.000000,342.333344 1.000000,1.000000 
	C342.333344,1.000000 683.666687,1.000000 1025.000000,1.000000 
	C1025.000000,342.333344 1025.000000,683.666687 1025.000000,1025.000000 
	C849.833313,1025.000000 674.666687,1025.000000 499.000000,1025.000000 
M352.961517,720.654846 
	C352.961517,720.654846 352.960663,720.847534 352.327972,721.173645 
	C340.513062,740.149536 339.072235,760.326782 350.421661,779.179810 
	C365.109680,803.578857 382.916321,810.223694 408.490845,806.496094 
	C430.282227,803.319885 444.810608,789.185791 451.883240,767.017212 
	C454.585510,755.159241 455.055573,743.413818 450.031982,731.266296 
	C449.715057,730.495850 449.398132,729.725342 448.986328,728.241516 
	C447.927002,726.620850 446.694580,725.086426 445.836273,723.365479 
	C440.125275,711.914490 430.481110,704.933289 419.144440,699.990784 
	C409.551239,695.808289 399.503723,694.999878 389.266052,697.013611 
	C374.296356,699.958191 362.242004,707.493225 353.195831,720.241150 
	C353.195831,720.241150 353.125305,720.553345 352.961517,720.654846 
M634.659729,654.950195 
	C636.921631,654.903320 639.183472,654.856445 642.298706,654.969543 
	C647.537903,654.920349 652.777100,654.871155 658.752869,654.946228 
	C659.496277,654.905212 660.239624,654.864136 661.734558,654.969604 
	C662.495361,654.921631 663.256226,654.873657 664.894409,654.950745 
	C667.257385,654.909241 669.620361,654.867798 672.910583,654.973511 
	C678.279175,654.921997 683.647766,654.870544 689.914368,654.944092 
	C692.937256,654.902771 695.960083,654.861511 699.835754,654.968262 
	C701.562622,654.918945 703.289490,654.869629 705.730103,654.946289 
	C706.938965,654.903564 708.147888,654.860840 710.236938,654.969849 
	C719.617371,654.924622 728.997803,654.879456 739.240784,654.959717 
	C754.608826,656.987366 768.271362,645.363220 771.087463,629.934509 
	C772.578369,621.765747 774.804199,613.731018 776.701416,605.636475 
	C780.793152,588.179138 785.022461,570.752563 788.945557,553.257385 
	C793.865784,531.315552 798.471985,509.303497 803.335938,487.348785 
	C806.472107,473.192963 809.739075,459.064575 813.105530,444.961639 
	C818.100403,424.036835 823.435791,403.190643 828.165283,382.207123 
	C829.305969,377.146149 830.033569,371.240021 828.540588,366.478424 
	C824.056885,352.178955 815.402405,345.086456 799.439697,345.068268 
	C718.261108,344.975769 637.082092,344.904053 555.903687,345.068390 
	C488.326508,345.205170 420.750000,345.684296 353.173126,345.996979 
	C343.609894,346.041229 334.045197,346.083740 324.483246,345.963531 
	C320.216644,345.909912 315.957062,345.282593 311.690643,345.234070 
	C308.751801,345.200653 305.766754,346.142975 302.874756,345.873138 
	C299.374237,345.546509 296.629395,344.685486 295.677795,339.825317 
	C293.558716,329.002411 290.206390,318.420013 287.334625,307.745544 
	C282.555695,289.981781 277.398376,272.310181 273.067444,254.438126 
	C268.295563,234.746521 256.751251,224.875900 236.060104,224.985123 
	C216.900116,225.086258 197.738739,224.931274 178.578934,225.047897 
	C170.740738,225.095612 163.991074,228.325455 158.153320,233.373215 
	C150.221817,240.231369 148.382477,249.221375 148.894928,259.284607 
	C149.375839,268.728882 159.470078,281.211304 169.334457,283.736420 
	C170.735397,284.163025 172.135300,284.955353 173.537445,284.959320 
	C186.689194,284.996521 199.841339,284.898834 213.861282,284.950562 
	C215.680664,284.950562 217.500031,284.950562 219.712738,284.950562 
	C224.498856,302.370483 229.288528,319.618805 233.972061,336.895874 
	C240.069092,359.387115 246.005661,381.922028 252.153595,404.399231 
	C257.663086,424.542175 263.476715,444.602142 268.953949,464.753693 
	C275.586731,489.156738 281.966217,513.628479 288.529572,538.050598 
	C296.654205,568.282227 304.964081,598.464539 312.981567,628.724304 
	C317.714386,646.586975 328.635925,656.729797 347.383759,654.966553 
	C428.336517,654.979614 509.289246,655.001892 590.242004,654.997253 
	C604.729187,654.996399 619.216370,654.883850 634.659729,654.950195 
M722.048767,741.310730 
	C722.077576,740.893555 722.106384,740.476318 722.750366,739.661926 
	C717.113464,717.542297 703.444519,703.250793 681.213318,697.654602 
	C660.117188,692.344238 641.855042,698.796570 627.716980,714.221558 
	C613.543152,729.685608 610.899048,748.806580 616.262390,769.708557 
	C618.410278,773.914673 620.211365,778.345337 622.763916,782.289551 
	C636.477661,803.480225 657.494202,810.446350 679.980042,806.194153 
	C700.124817,802.384644 713.673950,789.274902 721.077820,770.323608 
	C724.363342,761.913757 725.290527,752.924683 722.990112,743.312134 
	C722.699402,742.853271 722.408630,742.394470 722.048767,741.310730 
z"/>
<path fill="#6CBA6E" opacity="1.000000" stroke="none" 
	d="
M346.645050,654.820679 
	C328.635925,656.729797 317.714386,646.586975 312.981567,628.724304 
	C304.964081,598.464539 296.654205,568.282227 288.529572,538.050598 
	C281.966217,513.628479 275.586731,489.156738 268.953949,464.753693 
	C263.476715,444.602142 257.663086,424.542175 252.153595,404.399231 
	C246.005661,381.922028 240.069092,359.387115 233.972061,336.895874 
	C229.288528,319.618805 224.498856,302.370483 219.712738,284.950562 
	C217.500031,284.950562 215.680664,284.950562 213.106781,284.732727 
	C208.051361,283.644287 203.777725,282.237579 199.443741,282.017181 
	C191.014954,281.588562 182.551544,281.753143 174.104385,281.845886 
	C172.362488,281.865021 170.628937,282.643829 168.891556,283.072510 
	C159.470078,281.211304 149.375839,268.728882 148.894928,259.284607 
	C148.382477,249.221375 150.221817,240.231369 158.153320,233.373215 
	C163.991074,228.325455 170.740738,225.095612 178.578934,225.047897 
	C197.738739,224.931274 216.900116,225.086258 236.060104,224.985123 
	C256.751251,224.875900 268.295563,234.746521 273.067444,254.438126 
	C277.398376,272.310181 282.555695,289.981781 287.334625,307.745544 
	C290.206390,318.420013 293.558716,329.002411 295.677795,339.825317 
	C296.629395,344.685486 299.374237,345.546509 302.874756,345.873138 
	C305.766754,346.142975 308.751801,345.200653 311.690643,345.234070 
	C315.957062,345.282593 320.216644,345.909912 324.483246,345.963531 
	C334.045197,346.083740 343.609894,346.041229 353.173126,345.996979 
	C420.750000,345.684296 488.326508,345.205170 555.903687,345.068390 
	C637.082092,344.904053 718.261108,344.975769 799.439697,345.068268 
	C815.402405,345.086456 824.056885,352.178955 828.540588,366.478424 
	C830.033569,371.240021 829.305969,377.146149 828.165283,382.207123 
	C823.435791,403.190643 818.100403,424.036835 813.105530,444.961639 
	C809.739075,459.064575 806.472107,473.192963 803.335938,487.348785 
	C798.471985,509.303497 793.865784,531.315552 788.945557,553.257385 
	C785.022461,570.752563 780.793152,588.179138 776.701416,605.636475 
	C774.804199,613.731018 772.578369,621.765747 771.087463,629.934509 
	C768.271362,645.363220 754.608826,656.987366 739.119019,654.645020 
	C740.507202,653.710571 742.017151,653.090820 744.167969,652.207947 
	C608.737549,652.207947 474.063843,652.207947 339.289948,652.207947 
	C341.850647,653.117554 344.247864,653.969116 346.645050,654.820679 
M366.322784,598.428772 
	C368.446411,598.624573 370.569977,598.991028 372.693665,598.991699 
	C468.131256,599.021667 563.568848,599.019470 659.749573,599.376038 
	C660.555481,599.561646 661.360168,599.903809 662.167419,599.909912 
	C680.606689,600.049500 699.046204,600.159607 717.485840,600.217529 
	C717.914490,600.218872 718.345215,599.555420 718.875183,599.119690 
	C716.016479,598.044250 713.515259,597.103394 711.890137,596.039185 
	C713.556335,596.025513 715.307556,596.322083 716.860840,595.896423 
	C718.027283,595.576782 719.630493,594.487244 719.862915,593.471252 
	C724.697937,572.340210 729.199097,551.132080 734.102661,530.017395 
	C741.775574,496.977753 749.725830,464.002594 757.496765,430.985565 
	C759.589783,422.092651 761.459473,413.147217 763.424927,404.256866 
	C613.317749,404.256866 463.765930,404.256866 314.063934,404.256866 
	C314.123810,405.180878 314.060669,405.855103 314.223145,406.469696 
	C317.801361,420.007141 321.356476,433.551025 325.013885,447.067169 
	C330.931854,468.937195 336.942596,490.782135 342.872070,512.649048 
	C348.288208,532.622864 353.588257,552.628357 359.063721,572.585754 
	C361.211456,580.413940 363.697174,588.149292 366.012665,596.609253 
	C366.002289,597.064087 365.991913,597.518982 366.322784,598.428772 
M319.500458,346.987854 
	C313.504944,346.987854 307.509430,346.987854 301.513916,346.987854 
	C301.520721,347.245697 301.527527,347.503510 301.534332,347.761353 
	C468.555634,347.761353 635.576965,347.761353 803.151306,347.761353 
	C802.328674,347.364075 802.050659,347.112152 801.772461,347.112061 
	C641.348389,347.059845 480.924316,347.024567 319.500458,346.987854 
z"/>
<path fill="#6CBA6E" opacity="1.000000" stroke="none" 
	d="
M449.081238,728.954895 
	C449.398132,729.725342 449.715057,730.495850 449.888214,731.926392 
	C449.612549,733.710938 449.315552,734.844238 449.375031,735.958496 
	C449.821381,744.316772 450.320221,752.672424 450.844452,761.026306 
	C450.985657,763.276794 451.270660,765.518311 451.489655,767.763916 
	C444.810608,789.185791 430.282227,803.319885 408.490845,806.496094 
	C382.916321,810.223694 365.109680,803.578857 350.421661,779.179810 
	C339.072235,760.326782 340.513062,740.149536 352.693329,720.996826 
	C353.058685,720.820068 353.125305,720.553345 353.125305,720.553345 
	C353.125305,720.553345 353.195831,720.241150 353.622437,720.281250 
	C354.999908,719.873535 356.094818,719.599304 356.877869,718.949402 
	C361.327850,715.255798 365.609406,711.354980 370.124786,707.745483 
	C378.075409,701.389954 387.765442,700.911743 397.314819,700.008423 
	C404.276672,699.349976 411.142517,699.296021 417.455597,702.926697 
	C422.235901,705.675781 426.856110,708.720886 431.735291,711.275818 
	C437.305420,714.192444 441.057251,718.417114 443.601868,724.174377 
	C444.489532,726.182800 447.202087,727.384705 449.081238,728.954895 
z"/>
<path fill="#6CBA6E" opacity="1.000000" stroke="none" 
	d="
M722.135193,740.059143 
	C722.106384,740.476318 722.077576,740.893555 721.921509,741.875549 
	C721.805237,743.428528 721.816162,744.416687 721.827148,745.404846 
	C722.232971,744.903931 722.638916,744.403076 723.044861,743.902222 
	C725.290527,752.924683 724.363342,761.913757 721.077820,770.323608 
	C713.673950,789.274902 700.124817,802.384644 679.980042,806.194153 
	C657.494202,810.446350 636.477661,803.480225 622.763916,782.289551 
	C620.211365,778.345337 618.410278,773.914673 616.498047,769.218140 
	C618.075989,768.096741 619.418213,767.465698 620.760437,766.834717 
	C618.391357,764.254822 617.344482,763.083801 617.040100,761.744019 
	C614.499207,750.560242 617.863647,740.167358 620.980835,729.575562 
	C623.697327,720.345093 631.196960,715.746887 637.525574,709.893616 
	C639.308533,708.244568 640.975464,706.140442 643.113220,705.266846 
	C649.450928,702.676941 655.929871,700.165955 662.947754,700.359741 
	C670.385315,700.565125 678.159241,699.845947 685.145142,701.810364 
	C691.429565,703.577576 697.273010,707.900269 702.508118,712.097229 
	C706.640259,715.409851 709.871948,720.024475 712.921875,724.460693 
	C716.334839,729.425110 719.092407,734.840210 722.135193,740.059143 
z"/>
<path fill="#65B266" opacity="1.000000" stroke="none" 
	d="
M347.014404,654.893616 
	C344.247864,653.969116 341.850647,653.117554 339.289948,652.207947 
	C474.063843,652.207947 608.737549,652.207947 744.167969,652.207947 
	C742.017151,653.090820 740.507202,653.710571 738.687744,654.582275 
	C728.997803,654.879456 719.617371,654.924622 709.547241,654.648376 
	C707.577148,654.491394 706.296753,654.655884 705.016357,654.820374 
	C703.289490,654.869629 701.562622,654.918945 699.184326,654.614136 
	C695.246643,652.504333 692.038513,652.078247 689.016357,654.819031 
	C683.647766,654.870544 678.279175,654.921997 672.234924,654.624634 
	C668.897644,652.435242 666.363342,652.341614 664.017029,654.825684 
	C663.256226,654.873657 662.495361,654.921631 661.227417,654.673584 
	C659.818970,654.525696 658.917603,654.673767 658.016296,654.821899 
	C652.777100,654.871155 647.537903,654.920349 641.526917,654.610962 
	C638.404602,654.442505 636.054077,654.632690 633.703552,654.822876 
	C619.216370,654.883850 604.729187,654.996399 590.242004,654.997253 
	C509.289246,655.001892 428.336517,654.979614 347.014404,654.893616 
z"/>
<path fill="#73C276" opacity="1.000000" stroke="none" 
	d="
M722.442749,739.860535 
	C719.092407,734.840210 716.334839,729.425110 712.921875,724.460693 
	C709.871948,720.024475 706.640259,715.409851 702.508118,712.097229 
	C697.273010,707.900269 691.429565,703.577576 685.145142,701.810364 
	C678.159241,699.845947 670.385315,700.565125 662.947754,700.359741 
	C655.929871,700.165955 649.450928,702.676941 643.113220,705.266846 
	C640.975464,706.140442 639.308533,708.244568 637.525574,709.893616 
	C631.196960,715.746887 623.697327,720.345093 620.980835,729.575562 
	C617.863647,740.167358 614.499207,750.560242 617.040100,761.744019 
	C617.344482,763.083801 618.391357,764.254822 620.760437,766.834717 
	C619.418213,767.465698 618.075989,768.096741 616.454590,768.861755 
	C610.899048,748.806580 613.543152,729.685608 627.716980,714.221558 
	C641.855042,698.796570 660.117188,692.344238 681.213318,697.654602 
	C703.444519,703.250793 717.113464,717.542297 722.442749,739.860535 
z"/>
<path fill="#73C276" opacity="1.000000" stroke="none" 
	d="
M449.033783,728.598206 
	C447.202087,727.384705 444.489532,726.182800 443.601868,724.174377 
	C441.057251,718.417114 437.305420,714.192444 431.735291,711.275818 
	C426.856110,708.720886 422.235901,705.675781 417.455597,702.926697 
	C411.142517,699.296021 404.276672,699.349976 397.314819,700.008423 
	C387.765442,700.911743 378.075409,701.389954 370.124786,707.745483 
	C365.609406,711.354980 361.327850,715.255798 356.877869,718.949402 
	C356.094818,719.599304 354.999908,719.873535 353.766052,720.210632 
	C362.242004,707.493225 374.296356,699.958191 389.266052,697.013611 
	C399.503723,694.999878 409.551239,695.808289 419.144440,699.990784 
	C430.481110,704.933289 440.125275,711.914490 445.836273,723.365479 
	C446.694580,725.086426 447.927002,726.620850 449.033783,728.598206 
z"/>
<path fill="#56A35B" opacity="1.000000" stroke="none" 
	d="
M169.113007,283.404449 
	C170.628937,282.643829 172.362488,281.865021 174.104385,281.845886 
	C182.551544,281.753143 191.014954,281.588562 199.443741,282.017181 
	C203.777725,282.237579 208.051361,283.644287 212.672821,284.677490 
	C199.841339,284.898834 186.689194,284.996521 173.537445,284.959320 
	C172.135300,284.955353 170.735397,284.163025 169.113007,283.404449 
z"/>
<path fill="#73C276" opacity="1.000000" stroke="none" 
	d="
M451.686462,767.390564 
	C451.270660,765.518311 450.985657,763.276794 450.844452,761.026306 
	C450.320221,752.672424 449.821381,744.316772 449.375031,735.958496 
	C449.315552,734.844238 449.612549,733.710938 449.929596,732.263855 
	C455.055573,743.413818 454.585510,755.159241 451.686462,767.390564 
z"/>
<path fill="#6CBA6E" opacity="1.000000" stroke="none" 
	d="
M689.465332,654.881592 
	C692.038513,652.078247 695.246643,652.504333 698.757935,654.540161 
	C695.960083,654.861511 692.937256,654.902771 689.465332,654.881592 
z"/>
<path fill="#6CBA6E" opacity="1.000000" stroke="none" 
	d="
M664.455688,654.888184 
	C666.363342,652.341614 668.897644,652.435242 671.771301,654.551086 
	C669.620361,654.867798 667.257385,654.909241 664.455688,654.888184 
z"/>
<path fill="#73C276" opacity="1.000000" stroke="none" 
	d="
M723.017456,743.607178 
	C722.638916,744.403076 722.232971,744.903931 721.827148,745.404846 
	C721.816162,744.416687 721.805237,743.428528 721.956116,742.187988 
	C722.408630,742.394470 722.699402,742.853271 723.017456,743.607178 
z"/>
<path fill="#6CBA6E" opacity="1.000000" stroke="none" 
	d="
M634.181641,654.886536 
	C636.054077,654.632690 638.404602,654.442505 641.100220,654.531006 
	C639.183472,654.856445 636.921631,654.903320 634.181641,654.886536 
z"/>
<path fill="#6CBA6E" opacity="1.000000" stroke="none" 
	d="
M705.373230,654.883301 
	C706.296753,654.655884 707.577148,654.491394 709.107178,654.572510 
	C708.147888,654.860840 706.938965,654.903564 705.373230,654.883301 
z"/>
<path fill="#6CBA6E" opacity="1.000000" stroke="none" 
	d="
M658.384583,654.884033 
	C658.917603,654.673767 659.818970,654.525696 660.851685,654.600342 
	C660.239624,654.864136 659.496277,654.905212 658.384583,654.884033 
z"/>
<path fill="#73C276" opacity="1.000000" stroke="none" 
	d="
M353.043396,720.604126 
	C353.125305,720.553345 353.058685,720.820068 353.009674,720.833801 
	C352.960663,720.847534 352.961517,720.654846 353.043396,720.604126 
z"/>
<path fill="#000000" opacity="1.000000" stroke="none" 
	d="
M366.028992,595.926880 
	C363.697174,588.149292 361.211456,580.413940 359.063721,572.585754 
	C353.588257,552.628357 348.288208,532.622864 342.872070,512.649048 
	C336.942596,490.782135 330.931854,468.937195 325.013885,447.067169 
	C321.356476,433.551025 317.801361,420.007141 314.223145,406.469696 
	C314.060669,405.855103 314.123810,405.180878 314.063934,404.256866 
	C463.765930,404.256866 613.317749,404.256866 763.424927,404.256866 
	C761.459473,413.147217 759.589783,422.092651 757.496765,430.985565 
	C749.725830,464.002594 741.775574,496.977753 734.102661,530.017395 
	C729.199097,551.132080 724.697937,572.340210 719.862915,593.471252 
	C719.630493,594.487244 718.027283,595.576782 716.860840,595.896423 
	C715.307556,596.322083 713.556335,596.025513 710.987305,596.028687 
	C668.471252,596.010986 626.858032,596.007202 585.244873,595.995605 
	C512.172913,595.975281 439.100952,595.950073 366.028992,595.926880 
z"/>
<path fill="#65B266" opacity="1.000000" stroke="none" 
	d="
M366.020813,596.268066 
	C439.100952,595.950073 512.172913,595.975281 585.244873,595.995605 
	C626.858032,596.007202 668.471252,596.010986 710.549255,596.090332 
	C713.515259,597.103394 716.016479,598.044250 718.875183,599.119690 
	C718.345215,599.555420 717.914490,600.218872 717.485840,600.217529 
	C699.046204,600.159607 680.606689,600.049500 662.167419,599.909912 
	C661.360168,599.903809 660.555481,599.561646 659.005249,599.020386 
	C655.288147,598.452026 652.315552,598.054932 649.342712,598.053345 
	C554.888977,598.003235 460.435272,597.991455 365.981537,597.973816 
	C365.991913,597.518982 366.002289,597.064087 366.020813,596.268066 
z"/>
<path fill="#56A35B" opacity="1.000000" stroke="none" 
	d="
M320.000366,346.988495 
	C480.924316,347.024567 641.348389,347.059845 801.772461,347.112061 
	C802.050659,347.112152 802.328674,347.364075 803.151306,347.761353 
	C635.576965,347.761353 468.555634,347.761353 301.534332,347.761353 
	C301.527527,347.503510 301.520721,347.245697 301.513916,346.987854 
	C307.509430,346.987854 313.504944,346.987854 320.000366,346.988495 
z"/>
<path fill="#5E9D61" opacity="1.000000" stroke="none" 
	d="
M366.152161,598.201294 
	C460.435272,597.991455 554.888977,598.003235 649.342712,598.053345 
	C652.315552,598.054932 655.288147,598.452026 658.633667,598.842896 
	C563.568848,599.019470 468.131256,599.021667 372.693665,598.991699 
	C370.569977,598.991028 368.446411,598.624573 366.152161,598.201294 
z"/>
</svg>